<svg t="1677654381890" class="icon" viewBox="0 0 1024 1024" version="1.1" xmlns="http://www.w3.org/2000/svg" p-id="1957" width="128" height="128"><path d="M399.36 81.493333c87.04-25.92 182.4-21.226667 267.2 11.093334 135.68 50.773333 239.68 175.573333 265.6 317.973333 14.613333 94.4 5.333333 195.84-43.413333 279.573333-3.52-9.6-7.253333-19.2-11.306667-28.586666 44.266667-89.28 50.133333-195.413333 21.653333-290.346667-36.586667-120.426667-132.8-220.48-251.733333-261.546667-97.706667-34.986667-208.426667-27.733333-302.08 16.533334-161.493333 72.32-258.453333 261.866667-224.32 435.413333 5.866667 40.533333 23.04 77.866667 39.466667 114.986667l-14.293334 18.56-0.64-1.493334C77.973333 576 76.266667 424.96 135.68 303.786667c51.413333-106.773333 149.44-190.186667 263.68-222.293334z" fill="#EEA34E" p-id="1958"></path><path d="M345.28 126.186667C438.933333 81.92 549.653333 74.666667 647.36 109.653333c118.933333 41.066667 215.146667 141.12 251.733333 261.546667 28.48 94.933333 22.613333 201.066667-21.653333 290.346667-24.106667-44.906667-56.746667-87.04-66.986667-137.92-8.96-40.533333 20.16-76.906667 19.2-116.906667-6.613333-36.16-45.226667-56.213333-79.68-48.426667-29.333333-35.733333-61.226667-77.12-109.866666-84.906666-63.36-6.506667-121.706667 36.586667-155.52 86.933333-57.173333-12.906667-113.28-30.08-170.666667-42.453333 4.266667-37.546667 14.826667-75.52 4.906667-113.173334-11.52-40.533333 42.24-48.746667 67.84-65.28-13.76-4.373333-27.626667-8.853333-41.386667-13.226666m-17.173333 76.266666c39.253333 22.186667 86.4 26.24 130.666666 24 25.92-4.48 57.92-0.213333 75.52-23.893333-4.16-4.053333-12.693333-12.053333-16.853333-16.106667-51.733333 1.813333-104.853333 10.346667-155.306667-5.866666-19.84-11.626667-28.053333 6.4-34.026666 21.866666M685.866667 261.333333c30.506667 37.653333 67.306667 73.173333 114.453333 88.426667 18.026667 5.013333 40.64 17.706667 57.28 2.666667 12.8-24.64-21.973333-27.946667-37.12-33.706667-49.6-10.88-81.706667-52.16-117.013333-85.013333-5.866667 8.853333-19.093333 15.466667-17.6 27.626666z" fill="#FDED78" p-id="1959"></path><path d="M120.96 561.6c-34.133333-173.546667 62.826667-363.093333 224.32-435.413333 13.76 4.373333 27.626667 8.853333 41.386667 13.226666-25.6 16.533333-79.36 24.746667-67.84 65.28 9.92 37.653333-0.64 75.626667-4.906667 113.173334-0.32 5.44-0.96 16.106667-1.386667 21.44 10.666667 3.413333 21.44 6.72 32.213334 9.6-16 34.24-24.853333 71.36-39.466667 106.24-34.133333 81.92-83.093333 157.653333-144.853333 221.44-16.426667-37.12-33.6-74.453333-39.466667-114.986667z" fill="#FFCC74" p-id="1960"></path><path d="M328.106667 202.453333c5.973333-15.466667 14.186667-33.493333 34.026666-21.866666 50.453333 16.213333 103.573333 7.68 155.306667 5.866666 4.16 4.053333 12.693333 12.053333 16.853333 16.106667-17.6 23.68-49.6 19.413333-75.52 23.893333-44.266667 2.24-91.413333-1.813333-130.666666-24z" fill="#9F3004" p-id="1961"></path><path d="M685.866667 261.333333c-1.493333-12.16 11.733333-18.773333 17.6-27.626666 35.306667 32.853333 67.413333 74.133333 117.013333 85.013333 15.146667 5.76 49.92 9.066667 37.12 33.706667-16.64 15.04-39.253333 2.346667-57.28-2.666667-47.146667-15.253333-83.946667-50.773333-114.453333-88.426667z" fill="#A2380A" p-id="1962"></path><path d="M484.586667 360.32c33.813333-50.346667 92.16-93.44 155.52-86.933333 48.64 7.786667 80.533333 49.173333 109.866666 84.906666 34.453333-7.786667 73.066667 12.266667 79.68 48.426667 0.96 40-28.16 76.373333-19.2 116.906667 10.24 50.88 42.88 93.013333 66.986667 137.92 4.053333 9.386667 7.786667 18.986667 11.306667 28.586666l-5.12 12.906667c-3.626667-3.733333-10.666667-11.306667-14.186667-15.04-29.44-49.92-64.32-98.666667-78.933333-155.413333-13.013333-43.52 12.906667-83.84 19.306666-125.76-8-14.613333-22.186667-24.213333-34.24-35.306667-6.72 12.16-13.333333 24.426667-20.053333 36.586667-31.466667-47.253333-63.36-108.8-126.506667-115.733334-55.04 2.986667-106.133333 40.533333-133.226666 87.573334-25.706667 46.72 0.426667 101.546667 32.746666 137.6 36.266667 44.693333 97.92 55.146667 136.533334 97.066666 40.32 41.813333 71.253333 91.413333 104.213333 138.986667-3.52 3.413333-10.56 10.346667-14.08 13.76-14.186667-18.133333-28.16-36.373333-41.173333-55.466667-5.866667-9.92-12.053333-19.733333-18.56-29.333333-23.36-31.68-50.56-60.586667-82.026667-84.16-12.373333-3.093333-24.853333-5.866667-37.333333-8.213333-6.826667-5.226667-13.653333-10.346667-20.586667-15.466667-53.546667-46.826667-109.973333-115.413333-84.48-191.573333 4.266667-7.68 8.746667-15.36 13.546667-22.826667z" fill="#FCA114" p-id="1963"></path><path d="M495.786667 379.946667c27.093333-47.04 78.186667-84.586667 133.226666-87.573334 63.146667 6.933333 95.04 68.48 126.506667 115.733334 6.72-12.16 13.333333-24.426667 20.053333-36.586667 12.053333 11.093333 26.24 20.693333 34.24 35.306667-6.4 41.92-32.32 82.24-19.306666 125.76 14.613333 56.746667 49.493333 105.493333 78.933333 155.413333-31.466667 24.853333-67.84 42.133333-100.16 65.6-32.96-47.573333-63.893333-97.173333-104.213333-138.986667-38.613333-41.92-100.266667-52.373333-136.533334-97.066666-32.32-36.053333-58.453333-90.88-32.746666-137.6z" fill="#FFE06E" p-id="1964"></path><path d="M313.92 317.866667c57.386667 12.373333 113.493333 29.546667 170.666667 42.453333-4.8 7.466667-9.28 15.146667-13.546667 22.826667-11.52-3.413333-22.933333-6.826667-34.346667-10.133334-10.346667-2.986667-20.8-5.866667-31.253333-8.853333-14.506667-4.053333-29.12-7.68-43.733333-11.2l-16.96-4.053333c-10.773333-2.88-21.546667-6.186667-32.213334-9.6 0.426667-5.333333 1.066667-16 1.386667-21.44z" fill="#332F1F" p-id="1965"></path><path d="M305.28 455.146667c14.613333-34.88 23.466667-72 39.466667-106.24l16.96 4.053333c-18.453333 42.666667-28.266667 88.533333-49.173334 130.24-14.933333 31.573333-30.826667 62.72-49.706666 92.16-10.026667 15.466667-20.8 30.506667-31.68 45.44a979.733333 979.733333 0 0 1-33.706667 42.453333c-13.013333 15.146667-27.306667 29.333333-43.306667 41.28l-6.08 4.48c-0.533333-3.413333-1.386667-10.346667-1.92-13.866666l14.293334-18.56c61.76-63.786667 110.72-139.52 144.853333-221.44z" fill="#28AAE6" p-id="1966"></path><path d="M361.706667 352.96c14.613333 3.52 29.226667 7.146667 43.733333 11.2 8.32 8.426667 12.373333 18.56 12.266667 30.186667 0.853333 48.533333-11.626667 96-24.213334 142.4-10.133333-21.013333-12.48-51.84-37.44-61.12-14.826667-1.173333-29.226667 4.373333-43.52 7.573333 20.906667-41.706667 30.72-87.573333 49.173334-130.24z" fill="#D8E9F0" p-id="1967"></path><path d="M405.44 364.16c10.453333 2.986667 20.906667 5.866667 31.253333 8.853333 2.133333 52.373333-6.293333 104.64-21.546666 154.666667-0.533333 2.133333-1.813333 6.186667-2.453334 8.213333-3.84 11.626667-7.893333 23.253333-12.053333 34.88-7.573333 20.586667-15.68 41.066667-23.893333 61.44-0.64 1.706667-2.026667 5.013333-2.666667 6.72-7.146667 18.453333-14.613333 36.906667-22.08 55.36l-9.386667 23.466667c-8.426667 21.44-14.613333 43.733333-19.2 66.24-4.906667-3.84-14.72-11.626667-19.733333-15.573333 5.973333-13.866667 11.413333-27.946667 16.64-42.026667 6.4-17.92 13.226667-35.733333 20.373333-53.333333 7.466667-18.133333 15.04-36.266667 22.4-54.4 10.773333-27.093333 21.44-54.186667 30.4-81.92 12.586667-46.4 25.066667-93.866667 24.213334-142.4 0.106667-11.626667-3.946667-21.76-12.266667-30.186667z" fill="#2FA8D9" p-id="1968"></path><path d="M436.693333 373.013333c11.413333 3.306667 22.826667 6.72 34.346667 10.133334-25.493333 76.16 30.933333 144.746667 84.48 191.573333-47.893333-11.946667-95.146667-26.88-140.373333-47.04 15.253333-50.026667 23.68-102.293333 21.546666-154.666667z" fill="#FFE376" p-id="1969"></path><path d="M312.533333 483.2c14.293333-3.2 28.693333-8.746667 43.52-7.573333 24.96 9.28 27.306667 40.106667 37.44 61.12-8.96 27.733333-19.626667 54.826667-30.4 81.92-31.04-19.413333-64.533333-34.666667-100.266666-43.306667 18.88-29.44 34.773333-60.586667 49.706666-92.16z" fill="#A3D6EC" p-id="1970"></path><path d="M415.146667 527.68c45.226667 20.16 92.48 35.093333 140.373333 47.04 6.933333 5.12 13.76 10.24 20.586667 15.466667-54.506667-17.92-109.12-35.733333-163.413334-54.293334 0.64-2.026667 1.92-6.08 2.453334-8.213333zM376.746667 632.213333c8.213333-20.373333 16.32-40.853333 23.893333-61.44 60.906667 21.333333 122.026667 42.026667 183.04 63.04-7.04 24.213333-13.973333 48.533333-20.48 72.96-10.453333-10.346667-20.906667-20.8-32.106667-30.4-43.306667-34.24-99.733333-48.32-154.346666-44.16z" fill="#7D180F" p-id="1971"></path><path d="M400.64 570.773333c4.16-11.626667 8.213333-23.253333 12.053333-34.88 54.293333 18.56 108.906667 36.373333 163.413334 54.293334 5.546667 3.626667 11.2 7.253333 16.853333 10.88-2.346667 8.213333-6.933333 24.533333-9.28 32.746666-61.013333-21.013333-122.133333-41.706667-183.04-63.04z" fill="#FFFFFF" p-id="1972"></path><path d="M231.146667 620.8c10.88-14.933333 21.653333-29.973333 31.68-45.44 35.733333 8.64 69.226667 23.893333 100.266666 43.306667-7.36 18.133333-14.933333 36.266667-22.4 54.4a1010.165333 1010.165333 0 0 0-109.546666-52.266667z" fill="#81CAE9" p-id="1973"></path><path d="M576.106667 590.186667c12.48 2.346667 24.96 5.12 37.333333 8.213333-12.053333 36.48-23.573333 73.173333-32.96 110.506667-5.866667 23.466667-11.626667 47.04-18.453333 70.186666-5.76 19.733333-12.053333 39.36-18.24 58.986667-16.213333 7.36-32.32 14.613333-48.426667 21.973333 29.333333 17.92 58.88 36.48 92.16 46.08 40.106667 10.986667 75.2 34.773333 115.413333 45.333334 8.213333-30.4 4.8-61.226667-7.04-90.133334-2.88-31.573333-4.693333-63.253333-4.693333-94.933333 0.533333-18.133333 0.64-36.266667 1.28-54.293333l2.986667-29.546667c6.506667 9.6 12.693333 19.413333 18.56 29.333333-6.72 50.346667-4.693333 101.333333 0.32 151.786667-2.56 31.253333 24.213333 68.8-2.453334 94.506667-29.12 16.426667-58.666667-3.626667-81.386666-21.12-21.653333-18.453333-51.2-17.6-77.866667-19.413334l-1.6-3.2c-1.28-2.88-3.733333-8.64-5.013333-11.52l-7.36 7.36c-12.586667-13.333333-27.626667-23.466667-45.866667-26.346666-5.76-5.013333-17.28-15.146667-23.04-20.16 7.04-23.68 33.28-22.72 51.84-31.893334 10.133333-16.533333 15.253333-35.413333 21.226667-53.653333 6.826667-23.786667 13.44-47.68 20.373333-71.466667 6.506667-24.426667 13.44-48.746667 20.48-72.96 2.346667-8.213333 6.933333-24.533333 9.28-32.746666-5.653333-3.626667-11.306667-7.253333-16.853333-10.88z" fill="#32ADDD" p-id="1974"></path><path d="M613.44 598.4c31.466667 23.573333 58.666667 52.48 82.026667 84.16l-2.986667 29.546667c-3.2 13.76-6.933333 27.306667-10.56 41.066666-9.6-10.666667-19.306667-21.226667-28.906667-31.68-24.533333-1.706667-50.453333-0.32-72.533333-12.586666 9.386667-37.333333 20.906667-74.026667 32.96-110.506667z" fill="#92D0EA" p-id="1975"></path><path d="M197.44 663.253333a979.733333 979.733333 0 0 0 33.706667-42.453333c37.546667 15.253333 74.133333 32.64 109.546666 52.266667-7.146667 17.6-13.973333 35.413333-20.373333 53.333333-41.066667-20.906667-82.133333-41.6-122.88-63.146667z" fill="#6AC2E7" p-id="1976"></path><path d="M374.08 638.933333c0.64-1.706667 2.026667-5.013333 2.666667-6.72 54.613333-4.16 111.04 9.92 154.346666 44.16-52.053333 1.386667-98.773333-29.013333-151.466666-27.626666l-5.546667-9.813334z" fill="#E36D62" p-id="1977"></path><path d="M374.08 638.933333l5.546667 9.813334c6.08 14.08 16.106667 26.24 31.573333 29.866666 37.013333 13.013333 74.026667 26.24 111.466667 37.866667 14.4 6.293333 27.52-5.226667 40.533333-9.706667-6.933333 23.786667-13.546667 47.68-20.373333 71.466667l-2.026667-0.426667c-64.533333-23.68-145.706667-20.586667-188.8-83.52 7.466667-18.453333 14.933333-36.906667 22.08-55.36z" fill="#E3582F" p-id="1978"></path><path d="M379.626667 648.746667c52.693333-1.386667 99.413333 29.013333 151.466666 27.626666 11.2 9.6 21.653333 20.053333 32.106667 30.4-13.013333 4.48-26.133333 16-40.533333 9.706667-37.44-11.626667-74.453333-24.853333-111.466667-37.866667-15.466667-3.626667-25.493333-15.786667-31.573333-29.866666z" fill="#EA6A55" p-id="1979"></path><path d="M154.133333 704.533333c16-11.946667 30.293333-26.133333 43.306667-41.28 40.746667 21.546667 81.813333 42.24 122.88 63.146667-5.226667 14.08-10.666667 28.16-16.64 42.026667-1.6 3.733333-4.906667 10.986667-6.506667 14.72-46.08-29.013333-95.253333-52.693333-143.04-78.613334z" fill="#53BAE5" p-id="1980"></path><path d="M145.493333 693.653333l0.64 1.493334c0.533333 3.52 1.386667 10.453333 1.92 13.866666-14.613333 13.12-30.4 28.053333-34.56 48 16 32.106667 58.986667 23.04 88.533334 27.306667-24.853333 1.386667-49.706667 3.626667-74.453334 6.72-14.506667-10.133333-34.773333-23.573333-30.72-44.16 9.28-23.04 31.36-36.8 48.64-53.226667z" fill="#2CB0DF" opacity=".94" p-id="1981"></path><path d="M869.44 688c3.52 3.733333 10.56 11.306667 14.186667 15.04-42.346667 65.813333-97.386667 126.933333-169.28 160.64-5.013333-50.453333-7.04-101.44-0.32-151.786667 13.013333 19.093333 26.986667 37.333333 41.173333 55.466667 3.52-3.413333 10.56-10.346667 14.08-13.76 32.32-23.466667 68.693333-40.746667 100.16-65.6zM323.413333 784c4.586667-22.506667 10.773333-44.8 19.2-66.24 50.56 52.8 126.4 79.146667 198.186667 60.053333l2.026667 0.426667c-5.973333 18.24-11.093333 37.12-21.226667 53.653333-18.56 9.173333-44.8 8.213333-51.84 31.893334 5.76 5.013333 17.28 15.146667 23.04 20.16-56.213333 12.266667-113.173333-10.773333-159.786667-40.96 33.066667-17.28 11.2-44.053333-9.6-58.986667z" fill="#FFCA73" p-id="1982"></path><path d="M352 694.293333c43.093333 62.933333 124.266667 59.84 188.8 83.52-71.786667 19.093333-147.626667-7.253333-198.186667-60.053333l9.386667-23.466667z" fill="#DD3B07" p-id="1983"></path><path d="M148.053333 709.013333l6.08-4.48c47.786667 25.92 96.96 49.6 143.04 78.613334 1.6-3.733333 4.906667-10.986667 6.506667-14.72 5.013333 3.946667 14.826667 11.733333 19.733333 15.573333 20.8 14.933333 42.666667 41.706667 9.6 58.986667-5.546667-2.986667-16.64-8.96-22.293333-11.946667-16.853333-15.04-39.68-13.44-60.48-10.346667-25.173333-2.026667-43.52-27.306667-69.76-26.773333-17.6-1.173333-35.306667-1.706667-52.906667-2.88 24.746667-3.093333 49.6-5.333333 74.453334-6.72-29.546667-4.266667-72.533333 4.8-88.533334-27.306667 4.16-19.946667 19.946667-34.88 34.56-48z" fill="#3CB2E4" p-id="1984"></path><path d="M562.026667 779.093333c6.826667-23.146667 12.586667-46.72 18.453333-70.186666 22.08 12.266667 48 10.88 72.533333 12.586666 9.6 10.453333 19.306667 21.013333 28.906667 31.68 3.626667-13.76 7.36-27.306667 10.56-41.066666-0.64 18.026667-0.746667 36.16-1.28 54.293333-2.88 13.226667-6.186667 26.346667-9.493333 39.36-38.826667-13.226667-78.72-23.04-119.68-26.666667z" fill="#73C5E8" p-id="1985"></path><path d="M681.706667 805.76c3.306667-13.013333 6.613333-26.133333 9.493333-39.36 0 31.68 1.813333 63.36 4.693333 94.933333-0.853333 4.373333-2.453333 12.906667-3.2 17.173334-47.253333-21.44-98.453333-30.186667-148.906666-40.426667 6.186667-19.626667 12.48-39.253333 18.24-58.986667 40.96 3.626667 80.853333 13.44 119.68 26.666667z" fill="#59BCE6" p-id="1986"></path><path d="M250.24 820.693333c20.8-3.093333 43.626667-4.693333 60.48 10.346667-12.586667 2.56-25.173333 4.8-37.866667 6.72-8.64-0.853333-25.28-5.546667-22.613333-17.066667z" fill="#587F7D" opacity=".83" p-id="1987"></path><path d="M272.853333 837.76c12.693333-1.92 25.28-4.16 37.866667-6.72 5.653333 2.986667 16.746667 8.96 22.293333 11.946667 46.613333 30.186667 103.573333 53.226667 159.786667 40.96 18.24 2.88 33.28 13.013333 45.866667 26.346666l7.36-7.36c1.28 2.88 3.733333 8.64 5.013333 11.52-97.92 7.253333-198.186667-19.413333-278.186667-76.693333z" fill="#FFAC50" p-id="1988"></path><path d="M495.36 860.053333c16.106667-7.36 32.213333-14.613333 48.426667-21.973333 50.453333 10.24 101.653333 18.986667 148.906666 40.426667 0.746667-4.266667 2.346667-12.8 3.2-17.173334 11.84 28.906667 15.253333 59.733333 7.04 90.133334-40.213333-10.56-75.306667-34.346667-115.413333-45.333334-33.28-9.6-62.826667-28.16-92.16-46.08z" fill="#3FB3E4" p-id="1989"></path></svg>